<?xml version="1.0" encoding="UTF-8"?>
<svg version="1.1" viewBox="0 0 2000 2000" width="1280" height="1280" xmlns="http://www.w3.org/2000/svg">
<path transform="translate(0)" d="m0 0h2e3v2e3h-2e3z" fill="#040404"/>
<path transform="translate(1099,524)" d="m0 0 3 1 5 14 1 5v14l-5 10-9 8-16 6-27 8-24 7-20 7-15 8-13 10-6 7-2 4-1 30-5 14-6 9-5 6-15 11-16 9-10 8-6 9-2 6v17l5 13 10 21 4 12 1 5v12l-3 10-6 10-11 13-7 11-2 5-1 12-5 16-2 3-1 7 4 26v4h-2l-4-13-2-14-13 20-8 10-11 14-7 10-12 16-4 10-5 29-1 9v16l1 5 5-3 8-9 11-15 14-19 13-16 8-10 6-9 7-12 8-9 13-8h10l6 4 5 8 4 9 7-6 6-4 8 1 5 5 2 3-1 7-8 19-3 13-3 18v12l6-3 12-15 16-24 9-12 3-3h3l-1 9-13 25-7 11-11 15-9 10-8 4h-10l-7-6-5-12v-22l4-18-6 9-9 14-9 11-7 8-5 3-11 1-7-3-4-8-1-3v-23l-12 15-13 19-13 17-7 8-8 7-3 2h-7l-6-3-6-7-3-10v-27h-2l-2 4-7 7-13 10-11 5-9-2-6-5-4-9v-17l1-6-7 9-8 8-5 3-9-1-11-8-3-6-1-4 1-16 3-13 4-9 4-8-6 8-10 12-11 17-6 10-5 2-4-1-5-1-10 16-11 13-6 7-6 3h-10l-6-4-5-8-3-12 1-16 4-18-3 4-11 18-9 11-11 11-8 2-9-1-4-4-3-6-1-5v-16l-5 5-10 9-21 14-9 4h-8l-6-4-7-8-6-10-1-9-5 5-10 17-5 8-4 2-8-1-6-4-2-4v-12l11-52 8-29 10-28 8-19 8-18 11-19 8-10 10-6 6-1 9 3 7 6 5 8 2 9-2 9-8 16-13 20-12 19-13 18-9 12-8 11-5 11-7 28 5-8 9-17 10-14 8-10 11-12 10-9 14-7 8-1 8 4 4 5 1 3v8l-4 8-8 9-12 9-11 7-20 10h-3l1 11 3 8 8 11 5 1 10-5 13-11 10-7 10-13 7-10 8-15 7-8 12-8 3-1h9l8 7 7 14 7-6 6-4 8 1 6 5 1 7-7 17-4 11-4 24v12l5-1 9-10 16-24 2-15 12-34 5-13 6-3 8 1 6 4 1 3-9 13-7 15-4 18-1 7 6-8 9-14 11-14 6-8h2l2-5 7-6 2-1h9l5 5 2 6v6l-5 9-10 12-4 8-7 30 7-3 28-24 7-9 9-13 9-7 5-2 8 1 10 6 7 7v2l2-1 12-36 13-30 11-21 7-9 11-8 5-2 9-1 8 2 9 5 2-6 8-11 9-11 6-12 2-12-2-12-9-21-6-12-4-15v-11l3-10 6-9 11-9 20-12 13-10 6-8 5-11 1-6 1-28 4-9 9-9 10-7 17-9 19-7 58-17 12-6 6-7 2-5 1-10-2-11-3-9z" fill="#FDFBF8"/>
<path transform="translate(1046,1157)" d="m0 0h11l5 4 4-1 5-3h13l3 1 5-1 10 1 1 1v9l-3-1-2-6h-10l6 12 4 2-4 2-1 12 8-2 4-3 1 4-2 3h-12l-3 12-9 20-9 16-24 36-11 16-14 19-7 21-6 23v10l-1 7v17l3 6 1 1 7-1 10-9 8-10 13-18 15-24 12-20 7-11 9-11 10-7 9-4h2l3-10 8-11 8-7 3-1h9l10 5 7 7 4 8v13l-4 20-2 6 16-4 7-10 8-14 7-8 2-1h9l6 3 1 5-3 8-8 13-8 20-6 14v7h5l12-11 13-17 10-14 6-8 6-5 9-1 5 3 2 3-1 6-3 8-6 19-3 14 5-2 9-9h2v-2h2v-2h2l2-4 11-11-1-7-1-9 4-8 5-6 4-2h8l6 2 1 3-4 7-5 9v3l7 2 15 2 7 3 2 2-2 9-13 30-8 22 1 4 7-4 4-4h2l2-4 14-18 14-19 10-13 7-8 3-1 2 2-1 7-10 18-8 11-10 14-9 11-7 8h-2l-1 3-14 10-7 3h-7l-7-6-4-8-1-4v-7l3-12 12-27 5-10-18-3-8 11-9 11-12 12-10 6-4 1h-7l-6-3-4-5-2-6 1-10 2-9-11 14-9 10-10 10-9 4-3 1h-7l-5-5-2-5v-17l4-16 1-3-16 3-4 4-10 15-10 10-7 8-11 8-7 3h-14l-10-5-5-5-6-9-1-4-4 4-8 13-12 17-9 11-14 15-10 6-7 2-9-1-6-4-6-7-4-13v-25l3-18 2-8-13 18-10 13-8 9-11 9-12 7h-8l-6-4-5-10v-15l4-12 11-25 4-7v-2h-8l-9-2-12 23-10 16-9 12-9 10-7 4h-9l-6-3-4-5-4-10-1-13 2-14 3-13-15 23-8 10-8 9-5 3-12 1-5-3-4-5-2-7v-18l4-16 5-12 10-18 7-7 11-7 3-1h8l7 4 6 10 3 7 7-6 6-4 7 1 5 3 3 6-1 7-9 21-5 28v12l6-3 11-14 14-20 11-17v-5l-2-4 1-7 5-10 5-4 2-1h8l6 3v4l-7 12-2 6 16 2 10 2 5 3v7l-13 31-6 15-3 8-1 6 6-3 10-9 11-14 13-17 15-20 5-12 14-41 10-27 16-32 6-10-4-5-4-9 1-10 4-6z" fill="#FDFBF8"/>
<path transform="translate(1576,836)" d="m0 0h12l7 4-1 7-5 8-8 10-1 2h3l2-5 3 1 1 3-4 6-3 5h-5l-2-3-11 21-1 3h18l2-9 8 1 5 3 6 4 2 5-5 3-10 2-32 2-5 12-13 32-11 30-9 29-6 23-1 12 1 2 5-2 12-14 9-10 10-13 6-8 3-6 7-6 9-12 7-9 5-5 4-10 8-11 5-4 7-1 6 3 2 6-10 20-11 30-3 14 2 6 5-1 11-8 10-8 9-8 8-10 11-12 5-6 5-9 1-1h8l10 4 1 7-4 9-8 15-7 17 7-6 14-11 12-10 16-12 3-2h4l1 5-1 3h-2l-1 3-28 22-14 12-11 9-5 5-22 66-8 18-10 19-10 13-5 3-4 1h-11l-10-4-8-7-4-8v-12l7-14 12-17v-3l1-3 5-1 13-15 9-9 8-7 10-9 5-5 6-16 9-29-33 33-11 7-15 6h-7l-5-3-4-7-2-7 1-11 4-10v-3l-15 22-26 34-11 13-6 7-8 4-8-2-6-4-4-5-3-7v-13l4-22 5-21v-3l-9 10-9 8-8 4-10 1-6-3-4-5-1-2v-14l2-9-16 20-13 13-6 4-12 3-7-6-2-9-4 4-8 11-9 11-9 6h-10l-6-4-5-8-2-6-1-14 2-14 3-12-15 23-8 10-11 11-10 2-7-1-5-5-3-8v-20l-13 16-11 14-10 11-10 6-9 1-10-4-10-9-3-6-1-5v-15l6-27 5-13 7-13 10-13 7-6 8-4h15l8 4 4 4 1 3v13l-6 11-12 12-13 9-13 5-5 27v8l1 6 8-2 11-7 5-5h2l2-4 5-5 8-10 11-14 12-17 9-16 7-7 14-8h9l6 4 6 10 3 7h2l2-4 10-6 7 1 5 5 2 3-1 7-9 22-5 28v9l2 3 7-6 14-19 9-14 9-21 9-16 7-10 5-4h9l6 3 1 5-3 8-8 13-9 22-5 12v7h5l12-11 10-13 13-18 7-9 5-4 8-1 7 3v9l-10 30-2 12 6-4 11-11 7-6 7-10 8-19 11-30 5-12-11 1-27 1-14-1-4-2v-3l11-3 27-2 20-1 3-3 5-11-2-4-1-5 1-2 8-1 11-18 8-12 5-5z" fill="#FCFAF7"/>
<path transform="translate(668,578)" d="m0 0h4l-1 10-4 5-5 1-4 2v2h-2v2l-5 5-3 1v2h-2l-2 4-8 7-10 10-4 3h-2l-2 4h-2v2h-2l-2 4-4 4h-2l-2 4-7 8-4 6-6 5-3 7-5 8-8 10-8 9-4 2-3 6-3 2-1 4 6 1v3l-5-1h-3l-3 8-1 3h9l3 3-2 6-2 1h-6l-4-4h-2l-2 11-3 5-4 3 1 6 2 3v6l-6 2-7-6 2-5 1-1h-7l1 5-1 4-1 6-6 5v-7l2-4v-5l-4 9-4 16-2 9-6 7h-2l-1 4-2 4-1-3-5 3-1 7-2 3 1 7-2 4h-6v-8l-1-3-8 17 2 5 5 6 2 7-1 8-8 12-8 10-7 10-1 9h-2v-3l-6 2-5 2v4l4-1 6 1-1 4-3 1-6-3-4 9-2 9-2 25-2 16-1 15-2 18-4 11-7 12 1 5-2 11-1 2-6-1-1-3v-3l-10 6-15 6-14 3h-18l-11-3-8-4-6-7-3-6-1-5v-12l2-10 8-16 9-10 5-5 7-3 5 2-1 6-7 15-4 13-1 7v9l3 9 5 4 3 1h9l11-4 10-6 8-8 5-8 3-10v-14l-5-15-6-14-4-4-4-15-8-21-4-16-1-7v-10l4-10 5-12 6-8 9-9 15-10 15-6 5-1h13l13 3 3 2 1-5 1-2-1-10 1-2 4-2 4-8 3-3-1-5-1-3v-7l2-2h11l1-7-2-4 10-12v-6l3-4 3-5 6-3 8-11 7-11 6-10 6-8 8-6 3-5 10-13 8-11 8-9 8-5 4-5 8-7 11-13 10-10 11-9 5-4 10-6 4-4h2v-2l-6 1-2-2 1-7 5 1 5 3 5-1 10-8 7-2z" fill="#FDFBF9"/>
<path transform="translate(1126,829)" d="m0 0h6l7 6 1 7-7 11h-2l-2 5-6 10-12 26-9 25-9 34-4 14-2 19v3l7-20 12-28 9-16 6-12 8-12 13-19 9-11 8-10 9-10 7-8 9-8 7-4 8-1 10 5 6 8 3 8 1 5-1 17-5 16-8 15-12 14-7 7-14 10-6 3h-2v2l11 1 12 6 8 9 3 8v16l-4 15-8 16-8 10-11 11-15 11-23 12-19 7-21 5h-16l-15-3-5-5 5-2 19-4 24-9 23-12 16-11 13-11 8-8 7-10 5-12v-11l-3-10-6-4-7-1-13 4-6-1-9-6-3-4 1-5 4-3 11-6 13-11 8-8 9-11 12-18 4-8 4-13v-8l-2-5-6 2-12 12-7 8-10 12-16 24-12 19-10 16-9 17-11 27-9 28-3 15-4 4-8 1-6-3-5-6-2-7v-21l1-16 5-24 10-42 6-17 6-13 11-25 8-14 9-10 8-8z" fill="#FDFBF8"/>
<path transform="translate(743,1179)" d="m0 0h5l5 6 2 4-1 9-9 16-11 25-12 31-1 5 8-14 9-13 20-26 8-11 15-16 8-8 10-6h10l6 3 5 6 4 8 1 10-2 17-8 20-9 16-9 11-9 10-10 10-10 7-12 7-11 7-12 6-6 2h-17l-3 9-13 40-3 12-3 3-5 2h-8l-5-4-2-4v-10l8-37 6-18 5-14 12-36 8-16 19-43 5-9 4-5 6-11z" fill="#FDFBF8"/>
<path transform="translate(668,578)" d="m0 0h4l-1 10-4 5-5 1-4 2v2h-2v2l-5 5-3 1v2h-2l-2 4-8 7-10 10-4 3h-2l-2 4h-2v2h-2l-2 4-4 4h-2l-2 4-7 8-4 6-6 5-3 7-5 8-8 10-8 9-4 2-3 6-3 2-1 4 6 1v3l-5-1h-3l-3 8-1 3h9l3 3-2 6-2 1h-6l-4-4h-2l-2 11-3 5-4 3 1 6 2 3v6l-6 2-7-6 2-5 1-1h-7l1 5-1 4-1 6-6 5v-7l2-4v-5l-4 9-4 16-2 9-6 7h-2l-1 4-2 4-1-3-5 3-1 7-2 3 1 7-2 4h-6v-8l-1-3-9 19-8-5h-3l1-5 1-2-1-10 1-2 4-2 4-8 3-3-1-5-1-3v-7l2-2h11l1-7-2-4 10-12v-6l3-4 3-5 6-3 8-11 7-11 6-10 6-8 8-6 3-5 10-13 8-11 8-9 8-5 4-5 8-7 11-13 10-10 11-9 5-4 10-6 4-4h2v-2l-6 1-2-2 1-7 5 1 5 3 5-1 10-8 7-2z" fill="#E3B375"/>
<path transform="translate(446,848)" d="m0 0h5l-1 6-5 7-3 11-1 3-4 2-1 3 2 4-2 11-4 12-7 31-3 6-1 5-2-4-3 5h-2l6 16-1 4-10-17-3-8-2-9-8-22-1-5v-15l4-13 6-9 6-7 8-5 6-1 3-5 12-5z" fill="#050504"/>
<path transform="translate(794,1203)" d="m0 0h5v13l-4 14-5 12-10 16-10 13-9 10-8 8-10 8-11 7-12 5-3-1 15-29 9-15 12-16 11-14 11-13 7-8 8-8z" fill="#040404"/>
<path transform="translate(1099,524)" d="m0 0 3 1 5 14 1 5v14l-5 10-9 8-16 6-27 8-24 7-20 7-15 8-13 10-6 7-2 4-1 30-5 14-6 9-5 6-15 11-16 9-10 8-6 9-2 6v17l5 13 10 21 4 12 1 5v12l-3 10-6 10-11 13-7 11-2 5-1 12-5 16-2 3-1 7 4 26v4h-2l-4-13-2-17 1-3 1-11 2-11 4-11 1-6h2l2-6 8-11 9-11 6-12 2-12-2-12-9-21-6-12-4-15v-11l3-10 6-9 11-9 20-12 13-10 6-8 5-11 1-6 1-28 4-9 9-9 10-7 17-9 19-7 58-17 12-6 6-7 2-5 1-10-2-11-3-9z" fill="#E4B476"/>
<path transform="translate(790,959)" d="m0 0 6 1 5 5 4 6v9l-3 15-4 8-8 7-10 9-9 6-5-1-1-7 4-17 8-20 7-14 4-6z" fill="#040404"/>
<path transform="translate(1626,1049)" d="m0 0 2 1-4 14-10 25-7 17-10 18-5 5-4 2-5-1-3-4-1-9 4-13 8-13 14-18 9-10 7-8z" fill="#070606"/>
<path transform="translate(1109,1301)" d="m0 0h2l7 10 10 5 9 3-3 7-7 10-9 10-7 6-10 4h-6l-3-4v-9l6-18z" fill="#040404"/>
<path transform="translate(529,839)" d="m0 0 5 1 1 2v9l-9 21-10 19-12 19-7 11-10 14-2 1 2-10 5-17 3-8 11-28 8-16 6-10 6-7z" fill="#040404"/>
<path transform="translate(876,866)" d="m0 0 5 1 2 4-1 10-5 14-9 17-14 21-13 18-7 11-1-4 13-38 9-22 12-23 7-8z" fill="#040404"/>
<path transform="translate(1013,787)" d="m0 0 3 3 4 6 7 4 5-2h3l-1 5-5 4-5 5-9 7-5 2h-10l-10-6-6-5-7-11v-2l9-4 7-5 7 1 3 2 7-1z" fill="#E3B375"/>
<path transform="translate(406,1086)" d="m0 0 12 1-1 5-3 9v6l1 3-1 9 7 3v4l-5 4-3 12 7 1 2 5-1 10-4 2 3 10 5 3 2 5-5 3-3 1 5 3v3l-5-1-8-6-4-6 3-6-5-2-1-4 4-4-4-4v-9l1-5-1-4 3-5 3-2 1-5-5-2-1-5-4-4 3-5v-4l-3-1 1-4 3-1v-12z" fill="#E4B579"/>
<path transform="translate(1076,1172)" d="m0 0h4v12l-6 18-12 25-12 21-14 24-5 7-1-2 14-41 11-28 9-19 6-10z" fill="#040404"/>
<path transform="translate(1137,654)" d="m0 0h2l1 4v29l-3 30-5 25-7 21-9 20-10 18-11 16-11 13-13 13-18 12-14 8-14 6-12 3h-14l-10-3-8-6-1-4h3l9 6 6 2 9 1 13-2 14-5 18-10 14-10 8-7h2l2-4 7-8 5-5 7-10 8-13 11-21 9-24 4-15 4-21 2-19z" fill="#E4B476"/>
<path transform="translate(839,1285)" d="m0 0 5 1 2 7 3 11-1 6-12 17-12 16-7 7h-3v-9l4-17 7-18 6-12 4-6z" fill="#040404"/>
<path transform="translate(1336,945)" d="m0 0 5 1 2 5 3 13-1 6-12 17-10 13-9 10-3-1v-9l5-19 7-18 8-14z" fill="#040404"/>
<path transform="translate(924,945)" d="m0 0 4 1 2 7 3 11-1 6-12 17-13 17-6 6h-3v-9l4-17 7-18 6-12 4-6z" fill="#040404"/>
<path transform="translate(603,945)" d="m0 0 4 1 1 1 3 14 1 8-11 15-9 12-8 10-5 5h-2v-10l4-17 7-18 6-12 5-7z" fill="#040404"/>
<path transform="translate(1143,1261)" d="m0 0h5l3 4v12l-5 22-4 11-2 2h-9l-6-3-3-5 1-10 5-14 6-12 7-6z" fill="#040404"/>
<path transform="translate(1094,622)" d="m0 0 16 1 9 4v2l-11-2h-21l-17 4-12 5-14 10-10 11-9 16-4 9-6 25-3 26v30l-5 5h-8l-6-1v-3h15v-33l3-26 3-15 7-19 6-11 8-10 6-7 14-10 8-4 17-5z" fill="#E4B476"/>
<path transform="translate(431,907)" d="m0 0 1 3h2l2 4 2-5 1 4 4-1 6 1-1 4-3 1-6-3-4 9-2 9-2 25-2 16-1 15-2 3-2-11-3-7-2-4-1-8-4-9v-3l3-2 2-4h2l4-10z" fill="#E4B67B"/>
<path transform="translate(605,1516)" d="m0 0h13l5 4 2 6h6l6 4 6 13 2 2-1 6-5 5-2-1-1-11h-5l-2 2-1 4-3 1-5-5-3-2v-3l6-3-1-5 3-5-7 1-8-2-3 2-5-1 1-11z" fill="#E5B77B"/>
<path transform="translate(1209,1085)" d="m0 0 7 1 5 5 8 18 2 1 1-5 5-11 3-8 10-1-2 4-1 8v12l2 7 1 3-3 1h-8l-3-2 3-2v-17l-4 9-3 9v2h-5l-5-12-6-12v22l4 1v1h-10l1-4v-26z" fill="#E4B578"/>
<path transform="translate(431,1247)" d="m0 0h7l2 3 2 6 5 4v5l-3 1 1 5 3 3 4 17 5 5v4l7 2v6l-1 1h-8l-3-1 1-4 2-2-5-4v-6l-8-2-3-3-1-9-3-3v-7l-3-7-1-5z" fill="#E3B375"/>
<path transform="translate(644,1085)" d="m0 0h12l-3 8v7l15 1-1-12-1-4h12l-2 4v27l2 3-3 1h-9v-3l2-3v-9l-7-1h-8v9l3 6-2 1h-10v-3l2-2v-23z" fill="#E4B476"/>
<path transform="translate(582,1084)" d="m0 0 6 3 5 8 4 11v2h2l2-13 3-9h3l7 20 1 2 4-10 1-3v-8l-1-2h11v2l-3 1-8 22-3 10-4-1-6-19v-2l-2 1-4 11-1 9h-5l-9-27-4-7z" fill="#E4B476"/>
<path transform="translate(844,1640)" d="m0 0h5l6 7 1 6-1 5 1 6-5 1-2-2 1-5-6-2 1 8-2 2-7-1-3-2 1-8-4 1-9-3-2-3 2-2h7l6-4 2 3v5l3-2 2-6z" fill="#E5B77C"/>
<path transform="translate(737,1085)" d="m0 0 20 1 5 2 2 3v7l-4 5-2 1 1 4 5 6 5 3-1 3h-6l-5-5-9-11v-1l7-1 3-4-1-7-4-2h-5l-1 5 1 20 2 3v3h-12v-3l2-2v-21l-2-6z" fill="#E4B476"/>
<path transform="translate(944,1157)" d="m0 0 19 1 6 4 2 3-1 6-6 6 2 4 4 5 6 4-1 2-9-1-9-11-3-3v-2l7-2 3-3-1-7-4-2h-6v27l3 1v2l-2 1h-10v-4l2-1v-22l-2-5z" fill="#E4B476"/>
<path transform="translate(983,1084)" d="m0 0 8 3 4 4 7 16 2 2 4-9 4-8 1-5 6-2h4l-2 4-1 27 4 1v2l-5 1h-7v-3l2-2 1-19h-2l-3 10-4 8-2 6-4-2-8-19-9-12z" fill="#E4B577"/>
<path transform="translate(1229,1610)" d="m0 0 5 1 2 9-5 10v6l-3 8-2 4-7 2-5-4-2-4v-6l7-6 6-15z" fill="#E4B67A"/>
<path transform="translate(1140,1085)" d="m0 0 20 1 5 3 2 3v6l-4 5-3 3v2h2l5 6 5 3v2h-9l-9-11-3-3v-2l8-2 2-3-1-7-4-2h-6v22l2 5 2 3-13 1v-4l2-1v-23l-3-5z" fill="#E4B476"/>
<path transform="translate(1053,1085)" d="m0 0h10l6 4 4 5 2 5-1 9-3 6-6 6-3 1h-11l-8-7-3-8 1-9 4-6 5-5zm0 3-5 6-1 2v14l4 6 4 2 7-1 5-5 1-3v-13l-4-6-3-2z" fill="#E4B476"/>
<path transform="translate(907,1157)" d="m0 0h11l4 2 2 3v7l-4 2h-3l1-8-1-2-7-1-6 4-2 6v11l4 6 4 2h8l1-8-4-2-1-2h7l6-1-3 12-5 5-6 1-10-2-5-4-4-9v-7l5-10z" fill="#E4B476"/>
<path transform="translate(864,1084)" d="m0 0 10 2 5 5-1 5-3 3-4 1 1-8-1-3-7-1-5 3-3 6v12l3 5 2 2 9 1 2-2-1-6-2-2v-3h13l-2 5-3 9-2 2-4 1h-12l-6-4-4-7v-13l4-6 6-5z" fill="#E4B476"/>
<path transform="translate(537,928)" d="m0 0 4 1-1 6-8 10-7 8-12 11-11 8-5 2 2-5 13-16 13-15 10-9z" fill="#040404"/>
<path transform="translate(451,848)" d="m0 0 4 5 2 4-1 9-5 12-6 10-7 6-3 4 2-14-2-5 4-4h2l2-9 2-7 4-5z" fill="#E4B578"/>
<path transform="translate(1265,936)" d="m0 0h5l1 1v12l-4 8-5 6-8 7-9 6-1-2 9-20 6-11z" fill="#040404"/>
<path transform="translate(1089,1085)" d="m0 0h14l-2 5-1 8v10l2 7 2 1h9l2-2 1-6v-9l-2-11-1-3h11v3l-4 1v22l-3 7-2 2-4 1h-9l-5-3-3-5-1-22z" fill="#E4B476"/>
<path transform="translate(1267,1085)" d="m0 0h21l3 2 1 9h-3l-4-7h-8l-1 11 11 1v2l-10 1v11l2 1h8l6-6 1 4-2 5-6 1h-18v-4l2-1-1-26z" fill="#E4B477"/>
<path transform="translate(1309,1085)" d="m0 0h19l5 2 1 1v7l-4-1-1-5h-9l-1 2v8l1 1 8 1-3 3h-7l1 12h10l5-5 2-1v6l-2 3-5 1h-19v-3l2-3v-17l-1-8z" fill="#E4B579"/>
<path transform="translate(1403,1084)" d="m0 0h6l6 4 1 4-2 4h-4v-8h-7l-3 2v5l5 4 8 4 4 5 1 4-2 5-6 4-5 1-9-3-2-2v-7l1-2h4v6l3 3h6l4-4-1-4-13-7-5-6 1-5 5-5z" fill="#E6BB83"/>
<path transform="translate(695,1085)" d="m0 0h16l8 1 1 1v8h-4l-2-6h-9v11l10 1v2l-6 1-4-1v12l2 1h7l5-4 1-2h2l-1 8-5 2h-19l-1-4 2-5v-16l-2-7z" fill="#E5B87E"/>
<path transform="translate(784,1085)" d="m0 0h19l5 1 1 2v6l-4 2-2-7-9-1v12l9 1v2l-9 1v10l1 2h9l6-6 1 5-2 4-2 1h-21v-4l1-1v-22l-2-5z" fill="#E5B87D"/>
<path transform="translate(946,1084)" d="m0 0 6 2 7 14 7 16 2 4h-11v-4l-1-5-4-12-2-4-2-1-1 8-1 6 2-2 5 1 2 3-11 1-3 5 4 1 1 2-10 1-2-2 5-4 7-20 1-4-2-5z" fill="#E4B476"/>
<path transform="translate(464,1324)" d="m0 0 4 2 2 6 2 12 5 1 5 4 2 4v6l-2 4h-5l-7-7-1-7-6-4v-20z" fill="#E4B476"/>
<path transform="translate(998,1157)" d="m0 0 6 2 16 32-3 1h-9v-3l3-1-2-5-2-2-4 2-5-1 3-4h5l-3-9-2-2-4 15-4 6 7 2-4 2h-9v-4l4-1 2-8 5-12 1-5z" fill="#E5B87E"/>
<path transform="translate(1399,1516)" d="m0 0 5 1v9l-5 9-4-1-2-5h-7l-6 6h-5l-4-3 2-4 12-5 3-5 1-1h8z" fill="#E4B476"/>
<path transform="translate(1358,1085)" d="m0 0h16l5 2 1 8h-4l-3-6-5-1v28l4 2v1l-12 1v-4l1-1v-27h-5l-2 5-4 2v-6l2-3z" fill="#E4B579"/>
<path transform="translate(574,1480)" d="m0 0 5 1-1 7-1 5 6 1 4 4 7 2-1 5-4 2-4-2-4 1-10-2-1-1v-12l-1-8z" fill="#E4B476"/>
<path transform="translate(1049,1159)" d="m0 0h6l3 5-1 6-8 14-2 3h-3l-3-8v-11l4-7z" fill="#040404"/>
<path transform="translate(896,1085)" d="m0 0h14l-1 3h-3l-1 28h10l4-1 2-5h2l-1 9-13 1h-12v-3l2-2v-24z" fill="#E4B577"/>
<path transform="translate(994,792)" d="m0 0h5l5 3 10-1 5 7v2l-4 1h-23l-5-3 1-5z" fill="#040404"/>
<path transform="translate(987,804)" d="m0 0 4 2h27l6-1-2 4-7 6-5 2h-10l-9-6z" fill="#040404"/>
<path transform="translate(669,1566)" d="m0 0 8 1 3 9 9 1 1 5-3 2h-6l-5-2v2l-4-1-3-5v-2l-4-3 1-5z" fill="#E8BF8B"/>
<path transform="translate(1281,557)" d="m0 0 3 1v2l5 2h10l2 2-1 5-4 5-4 1-3-1-2-4-3-1v2h-5l-2-4z" fill="#E4B578"/>
<path transform="translate(1523,1352)" d="m0 0 4 1 6 17-1 7-6-1-4-9-4-1 2-10z" fill="#E4B476"/>
<path transform="translate(1105,668)" d="m0 0h3l-2 5-9 8-8 4-7 2h-15l-8-4-7-8v-2l4 1 8 7 5 2h13l9-3 9-7z" fill="#E4B476"/>
<path transform="translate(1e3 1670)" d="m0 0h6l4 3 7-1 2 2-1 5-5 1-2 4-4 1-8-6-1-7z" fill="#E4B476"/>
<path transform="translate(922,1651)" d="m0 0 3 1 2 7 2 3v15l-4 1-3-2-1-8v-2l-2 1-2 6-5-2 1-5 2-2h6z" fill="#E4B476"/>
<path transform="translate(729,1606)" d="m0 0 7 1 3 2 3-2h6l3 5v5l-2 2h-7l-11-8z" fill="#E6BB83"/>
<path transform="translate(1046,1157)" d="m0 0h11l-2 3h-6l-4 2-3 6v11l1 6-7-1-2-6 1-10 4-6z" fill="#F7E9D7"/>
<path transform="translate(763,477)" d="m0 0 6 2 1 1v5l-14 6-5-2v-5l6-5z" fill="#E4B476"/>
<path transform="translate(1384,1534)" d="m0 0 5 1 3 3v3l6-1 3 2v3l-7 1-2-2-3 2h-6l-3-4 1-7z" fill="#E4B476"/>
<path transform="translate(1537,1336)" d="m0 0 7 1 1 2v8l-4 3h-6l-3-3v-7z" fill="#E4B476"/>
<path transform="translate(1413,670)" d="m0 0 4 1 2 6v6l-1 1h-11l-2-2v-5l4-5z" fill="#E4B476"/>
<path transform="translate(827,467)" d="m0 0h5l5 4 1 5-2 3-3 1h-7l-2-2v-8z" fill="#E4B476"/>
<path transform="translate(418,1191)" d="m0 0 6 1v3l-3 2 1 7-3 1-7-3-4-3 1-4 5-3z" fill="#E4B476"/>
<path transform="translate(712,1591)" d="m0 0 3 1 1 2v10l-4 1-8-6-4-4v-2l8 1z" fill="#E4B476"/>
<path transform="translate(1480,1413)" d="m0 0h6l1 1v6l-4 6-2 2h-3l-3-7 1-5z" fill="#E4B476"/>
<path transform="translate(1097,493)" d="m0 0h12l2 1 1 6-3 3-7-1-6-4v-4z" fill="#E4B476"/>
<path transform="translate(1406,1499)" d="m0 0 6 1 4 4-1 5-4 4-6-2-1-1v-9z" fill="#E4B476"/>
<path transform="translate(504,1406)" d="m0 0h5l3 4v7l-3 4-6-1-1-2v-10z" fill="#E4B476"/>
<path transform="translate(1552,791)" d="m0 0h10l1 1v7l-1 3-6 1-5-4-1-6z" fill="#F6E7D4"/>
<path transform="translate(1280,1599)" d="m0 0 3 1 1 4v11l-3 1-2-1v-2l-6-2 1-6 4-5z" fill="#E4B476"/>
<path transform="translate(1117,1660)" d="m0 0 3 1-1 3-2 2 3 2v4l-6 4-6-2-1-4h2v-6l7-3z" fill="#E4B476"/>
<path transform="translate(481,1366)" d="m0 0 6 2 4 6 8-1 2 5-5 3-5-2-7-4-4-6z" fill="#E4B476"/>
<path transform="translate(1514,784)" d="m0 0h8l3 5-1 6-9 1-3-7z" fill="#E4B476"/>
<path transform="translate(1034,1669)" d="m0 0h6l3 1 4 1 2 2v6h-13l-2-5z" fill="#E4B476"/>
<path transform="translate(1097,1664)" d="m0 0 5 3 3 3-1 5-4 4h-5l-2-4 1-8z" fill="#E4B476"/>
<path transform="translate(947,1094)" d="m0 0 1 4-2 10 2-2 5 1 2 3-11 1-3 5 4 1 1 2-10 1-2-2 5-4 6-18z" fill="#E4B476"/>
<path transform="translate(1429,681)" d="m0 0h5l2 5v11l-6-1-3-4v-8z" fill="#E6BB83"/>
<path transform="translate(667,546)" d="m0 0 5 2 4 5-1 4-4 2h-6l-2-2 1-8z" fill="#E4B476"/>
<path transform="translate(1344,1561)" d="m0 0 3 2 2 9-1 7h-3l-4-7-3-2 1-5z" fill="#E9C392"/>
<path transform="translate(1307,585)" d="m0 0 4 2 1 2v9l-5 1-5-3-2-2 1-4z" fill="#E4B476"/>
<path transform="translate(1171,538)" d="m0 0h3l1 3v10l-4 1-7-4-1-5z" fill="#E4B476"/>
<path transform="translate(1561,950)" d="m0 0h7l1 1v6l-2 3h-2v2h-6l-2-3 1-7z" fill="#F7EAD9"/>
<path transform="translate(1669,1120)" d="m0 0 8 4 2 4-7 6-5-1-1-7 2-5z" fill="#E4B476"/>
<path transform="translate(793,1657)" d="m0 0 5 2 6 4-1 4-6 4-5 1v-14z" fill="#E4B476"/>
<path transform="translate(772,552)" d="m0 0 6 1 1 6-3 3-5 1-5-3-1-5 2-2z" fill="#E9C493"/>
<path transform="translate(955,1176)" d="m0 0 6 1v2l4 1 5 6 6 4-1 2-9-1-9-11z" fill="#E5B67B"/>
<path transform="translate(1309,532)" d="m0 0h9l4 2-1 6-3 3h-5l-4-6z" fill="#E4B476"/>
<path transform="translate(1206,1643)" d="m0 0 5 2 2 2v5l-5 5-5-1-1-8 2-4z" fill="#E4B476"/>
<path transform="translate(417,1206)" d="m0 0 6 1 5 2 2 5-2 2h-10l-3-4 1-5z" fill="#E7BE89"/>
<path transform="translate(1683,1132)" d="m0 0h10l2 2v8l-5 1-5-3-3-5z" fill="#F4E2CB"/>
<path transform="translate(1247,581)" d="m0 0h5l2 2v8l-2 3-6-1-3-3 1-5 1-2h2z" fill="#E7BD87"/>
<path transform="translate(1024,1676)" d="m0 0 7 1 2 2v9l-5 1-5-5-1-5z" fill="#E4B476"/>
<path transform="translate(1536,844)" d="m0 0 3 1-1 11-3 2-5-3v-2l-4-1v-3z" fill="#EAC494"/>
<path transform="translate(1503,1370)" d="m0 0h6l1 1v6l-7 6-4-2v-7z" fill="#E4B476"/>
<path transform="translate(1566,1246)" d="m0 0h5l1 3-2 5-1 8h-3l-5-8 1-5z" fill="#E4B476"/>
<path transform="translate(1557,1213)" d="m0 0 6 1 2 4-2 7-2 2-4-1-2-2v-8z" fill="#E5B67B"/>
<path transform="translate(999,1167)" d="m0 0 1 4-3 11-4 6 7 2-4 2h-9v-4l4-1 2-8 4-10z" fill="#E6B980"/>
<path transform="translate(1428,626)" d="m0 0 4 1 1 5-2 7-4 1-3-3-1-2v-6z" fill="#FBF6EE"/>
<path transform="translate(1498,1440)" d="m0 0h7l2 2v9l-1 1h-5l-4-5z" fill="#E4B476"/>
<path transform="translate(1586,1154)" d="m0 0h4l3 6v5l-2 2h-6l-3-5z" fill="#E4B476"/>
<path transform="translate(1399,1382)" d="m0 0 8 1 2 5-3 3-2 1h-6l-2-3 1-6z" fill="#E4B476"/>
<path transform="translate(1541,751)" d="m0 0h10l2 6-2 4h-6l-4-4-1-5z" fill="#FBF6EE"/>
<path transform="translate(1585,862)" d="m0 0 3 1 1 3-4 6-3 5h-5l-1-1v-6l4-3h3z" fill="#EEE0CE"/>
<path transform="translate(1188,1644)" d="m0 0 4 1 2 10-2 2-5-1-6-5 1-3z" fill="#E6BA82"/>
<path transform="translate(495,1383)" d="m0 0 6 1 3 4v5l-3 2h-5l-2-2v-9z" fill="#E7BD86"/>
<path transform="translate(889,521)" d="m0 0 5 2 2 3v6l-3 2-6-1-1-9z" fill="#E4B476"/>
<path transform="translate(961,1672)" d="m0 0 3 1 2-1h6l1 4-4 6-5 1-2-2z" fill="#E4B476"/>
<path transform="translate(1555,1265)" d="m0 0 5 1 3 4-1 5-2 1h-7l-1-1v-6z" fill="#E4B476"/>
<path transform="translate(1142,1702)" d="m0 0h4l2 6v6l-3 3-5-2v-9z" fill="#EBC79A"/>
<path transform="translate(805,1626)" d="m0 0 4 4 3 7v6l-6-1-2-3-1-10z" fill="#E9C28F"/>
<path transform="translate(1445,1325)" d="m0 0h7l4 3-1 5-3 2h-5l-3-6z" fill="#FDFCF9"/>
<path transform="translate(1244,1594)" d="m0 0 6 1 1 6-5 4-5-2-3-5z" fill="#E4B476"/>
<path transform="translate(1420,1476)" d="m0 0 6 1 1 1-1 7-2 2-4-1-5-6 1-3z" fill="#E4B476"/>
<path transform="translate(1536,1377)" d="m0 0 4 1 3 3v5l-4 4-5-1-1-4z" fill="#E4B476"/>
<path transform="translate(1535,980)" d="m0 0 11 3v4l-5 4h-7z" fill="#F9EFE3"/>
<path transform="translate(1152,507)" d="m0 0 9 2 1 3-5 7-4-1-2-5v-5z" fill="#E4B476"/>
<path transform="translate(1575,1245)" d="m0 0h9l1 4-7 7-4-2v-8z" fill="#E4B476"/>
<path transform="translate(408,1147)" d="m0 0h8l2 4-2 5-5 1-3-2-1-7z" fill="#fff"/>
<path transform="translate(1527,674)" d="m0 0 5 1 1 2v7l-2 2-5-1-2-3v-5z" fill="#F9F0E5"/>
<path transform="translate(1023,476)" d="m0 0 6 2 1 1-1 7-4 2-6-7 2-4z" fill="#E4B476"/>
<path transform="translate(1179,1631)" d="m0 0h6l2 1v9l-6 2-3-4v-7z" fill="#E4B476"/>
<path transform="translate(789,1630)" d="m0 0h5l5 7v3l-3-1-1-2-9 1-2-2 1-5z" fill="#E6BA82"/>
<path transform="translate(620,1569)" d="m0 0 3 2v10l-5 1-4-4 1-5z" fill="#E4B476"/>
<path transform="translate(1448,1480)" d="m0 0 4 1 3 10-2 2h-5l-2-2v-8z" fill="#E8C08D"/>
<path transform="translate(1503,1422)" d="m0 0 5 1 1 2v8l-1 1h-5l-3-6 1-4z" fill="#E4B476"/>
<path transform="translate(1512,1151)" d="m0 0h6l4 4-1 4-8 2-3-5 1-4z" fill="#EAC697"/>
<path transform="translate(1574,1052)" d="m0 0 3 1v9l-4 1-5-3-2-5z" fill="#FBF5EC"/>
<path transform="translate(1243,1558)" d="m0 0 5 1 4 4-1 4-8 1-3-2 1-7z" fill="#E4B476"/>
<path transform="translate(497,887)" d="m0 0 2 2-1 7-4 12-3 4-1-2v-6l3-9z" fill="#E4D2BA"/>
<path transform="translate(609,577)" d="m0 0 5 2 3 3-1 4-4 3h-4l-1-10z" fill="#EBCA9E"/>
<path transform="translate(374,1211)" d="m0 0 3 2v9l-2 3-4-1-2-2v-6z" fill="#E4B476"/>
<path transform="translate(1035,1168)" d="m0 0h1l1 5h2l1-5h1l2 17-7-1-2-6z" fill="#E5B77C"/>
<path transform="translate(1583,889)" d="m0 0 8 1 5 3 6 4 1 3h-2l-3-3h-7l-6-3-2 4h-2z" fill="#E4B476"/>
<path transform="translate(1339,616)" d="m0 0 6 1v6l-4 5-4-1-1-2v-6z" fill="#E4B476"/>
<path transform="translate(1334,1585)" d="m0 0 4 1 2 9-1 1-7-1-2-3v-5z" fill="#E6BC84"/>
<path transform="translate(403,1204)" d="m0 0h6l2 1v7l-2 2h-5v-2h-2l-1-6z" fill="#E4B476"/>
<path transform="translate(953,1695)" d="m0 0 4 3v7l-3 3-5-2-1-5z" fill="#E4B476"/>
<path transform="translate(1064,1678)" d="m0 0 4 1 2 9-7 2-3-2 1-5z" fill="#E7BD86"/>
<path transform="translate(457,1300)" d="m0 0 7 2v6l-1 1h-8l-3-1 1-4z" fill="#E4B476"/>
<path transform="translate(1548,1299)" d="m0 0h2l1 2v9l-2 3-4-1-2-7 3-5z" fill="#E4B579"/>
<path transform="translate(1517,736)" d="m0 0 5 1 1 1-1 7-3 3-4-1-1-6z" fill="#E4B476"/>
<path transform="translate(728,511)" d="m0 0h6l1 1v7l-3 4-4-2-2-8z" fill="#fff"/>
<path transform="translate(1398,1520)" d="m0 0h4v6l-3 2-10-1-2-1v-2z" fill="#fff"/>
<path transform="translate(523,680)" d="m0 0 6 1 1 1-1 9-4 1-2-1-1-10z" fill="#ECCBA1"/>
<path transform="translate(897,1657)" d="m0 0h6l2 1-1 6-2 1h-7l-3-2v-2z" fill="#E4B476"/>
<path transform="translate(1599,1201)" d="m0 0h5l2 4-1 7h-5l-2-2-1-6z" fill="#E4B476"/>
<path transform="translate(1242,542)" d="m0 0 6 1v6l-4 3-5-2-1-5z" fill="#E4B477"/>
<path transform="translate(1264,1594)" d="m0 0h5l-1 9-4 2-4-3 1-6z" fill="#E4B476"/>
<path transform="translate(1400,633)" d="m0 0h6l2 2-1 5-3 3-5-1-1-6z" fill="#E4B476"/>
<path transform="translate(1011,468)" d="m0 0h5l2 2-1 7-4 2-3-2-1-7z" fill="#E4B476"/>
<path transform="translate(836,1687)" d="m0 0 5 2v9l-6 1-2-6z" fill="#E4B476"/>
<path transform="translate(1367,662)" d="m0 0h5l1 2v7l-4 2-4-3-1-4 1-3z" fill="#E9C493"/>
<path transform="translate(1318,1579)" d="m0 0h6l1 9-4 2-4-2-1-4z" fill="#E9C494"/>
<path transform="translate(1540,1352)" d="m0 0 5 1 2 3v5l-4 2-5-5 1-5z" fill="#E4B476"/>
<path transform="translate(1569,1192)" d="m0 0h7l1 4-6 5-6-2 2-4z" fill="#F2DDC1"/>
<path transform="translate(814,1620)" d="m0 0h5l2 2-1 6-4 3-4-5v-5z" fill="#EAC798"/>
<path transform="translate(885,907)" d="m0 0h2l4 21v4h-2l-4-13z" fill="#F5E4CE"/>
<path transform="translate(860,1617)" d="m0 0 5 1v7l-2 2-5-1-2-3 1-4z" fill="#F3DFC6"/>
<path transform="translate(1126,1725)" d="m0 0 5 2 2 3v5l-1 1h-5l-2-3v-6z" fill="#F4E2CB"/>
<path transform="translate(944,1656)" d="m0 0 5 2 2 4-1 2h-10l-1-4z" fill="#EAC595"/>
<path transform="translate(847,1647)" d="m0 0h5l2 3-2 5-5 1-4-5 1-3z" fill="#fff"/>
<path transform="translate(1251,505)" d="m0 0h6l2 2-1 5-6 1-4-3 2-4z" fill="#F3E0C6"/>
<path transform="translate(892,870)" d="m0 0h2l-1 13-3 9h-2v-9z" fill="#FCF7F0"/>
<path transform="translate(564,1540)" d="m0 0h5l1 4-3 5-4 1-2-2 1-6z" fill="#E4B476"/>
<path transform="translate(722,1523)" d="m0 0 5 1v8l-4 2-2-1-1-8z" fill="#F3DFC5"/>
<path transform="translate(1563,1202)" d="m0 0 7 2-1 5-2 2-6-1-1-4z" fill="#E4B476"/>
<path transform="translate(1088,1157)" d="m0 0 14 1 1 1v9l-3-1-2-6-12-1z" fill="#E4B476"/>
<path transform="translate(1138,1653)" d="m0 0h2l-1 10-4 2-3-3 1-5z" fill="#E4B476"/>
<path transform="translate(528,1434)" d="m0 0 4 1 3 5-1 4-5 1-2-3z" fill="#E9C290"/>
<path transform="translate(452,1109)" d="m0 0h5l1 7-2 3-4-1-2-4 1-4z" fill="#F3E0C6"/>
<path transform="translate(724,1589)" d="m0 0h6v6l-3 4-4-2-1-6z" fill="#E4B476"/>
<path transform="translate(797,1569)" d="m0 0 4 2 1 1v6l-1 1h-5l-2-3 1-5z" fill="#F1DABC"/>
<path transform="translate(1173,994)" d="m0 0 1 4-8 13-9 8-2-1 8-8z" fill="#040404"/>
<path transform="translate(928,1664)" d="m0 0h1v13l-4 1-3-2-1-5 4-1z" fill="#E4B476"/>
<path transform="translate(1548,1322)" d="m0 0 5 1 1 5-3 4h-4l-1-4z" fill="#EED0AA"/>
<path transform="translate(842,1704)" d="m0 0h3l2 9-4 1-5-2 2-6z" fill="#E4B476"/>
<path transform="translate(887,883)" d="m0 0h1l1 11-2 6v7h-2l-1 4-1-9 1-3 1-7 1-1z" fill="#E9C391"/>
<path transform="translate(1495,701)" d="m0 0h7l-1 6-3 3-4-2-1-5z" fill="#EDCEA6"/>
<path transform="translate(1292,1593)" d="m0 0h5l1 1v6l-1 1h-5l-3-3 2-4z" fill="#EED1AC"/>
<path transform="translate(1455,1456)" d="m0 0h6l3 2v5l-4 1-6-5z" fill="#E4B476"/>
<path transform="translate(631,655)" d="m0 0 5 2 1 3-2 4-5-1-3-5z" fill="#E4B476"/>
<path transform="translate(1217,533)" d="m0 0 4 1 1 1v9l-5-1-1-2v-7z" fill="#EAC697"/>
<path transform="translate(1320,1497)" d="m0 0 5 1 1 5-3 3-4-1-1-5z" fill="#EAC697"/>
<path transform="translate(1361,1566)" d="m0 0 6 1 1 5-4 3-4-2v-6z" fill="#E4B476"/>
<path transform="translate(1369,1085)" d="m0 0 9 1 2 7-1 3-3-1-3-6-5-2z" fill="#E7BE89"/>
<path transform="translate(1253,1607)" d="m0 0 5 1 1 4-4 4-5-3 1-5z" fill="#E4B476"/>
<path transform="translate(1531,1127)" d="m0 0 4 2 2 6-2 2-5-1-1-4z" fill="#F3DEC3"/>
<path transform="translate(1015,455)" d="m0 0h5l1 5-2 3h-5l-1-1v-5z" fill="#E4B476"/>
<path transform="translate(1347,1543)" d="m0 0 5 1 1 4-2 6h-3l-2-9z" fill="#EBC89C"/>
<path transform="translate(588,1507)" d="m0 0 1 3-3 8h-2l-3-5 1-5z" fill="#E4B476"/>
<path transform="translate(1526,772)" d="m0 0h6l2 2-1 4-1 1h-6l-1-5z" fill="#F1D8B7"/>
<path transform="translate(922,484)" d="m0 0h7l-1 7-5 1-2-3z" fill="#E4B476"/>
<path transform="translate(1144,1649)" d="m0 0 9 3 1 4-4 2-6-5-1-3z" fill="#E4B476"/>
<path transform="translate(750,1622)" d="m0 0 4 1-2 8-5-2-2-4z" fill="#E4B476"/>
<path transform="translate(1536,1282)" d="m0 0 5 2 2 2-1 4-5 1-2-2v-6z" fill="#E4B476"/>
<path transform="translate(1e3 1671)" d="m0 0 4 4 3 1v4l-5 1-4-4v-5z" fill="#fff"/>
<path transform="translate(1383,1536)" d="m0 0h5l3 5-3 3-4-1-2-2z" fill="#fff"/>
<path transform="translate(1406,1504)" d="m0 0h7l1 4-3 3-5-1-1-5z" fill="#fff"/>
<path transform="translate(1572,1219)" d="m0 0 5 1 1 5-2 2-6-1v-5z" fill="#E4B476"/>
<path transform="translate(442,931)" d="m0 0 4 1 1 1v8l-5-2-2-2 1-5z" fill="#F4E0C7"/>
<path transform="translate(794,1660)" d="m0 0 6 3v3l-2 4-4-1-1-1z" fill="#FDFCF9"/>
<path transform="translate(1541,751)" d="m0 0h10l2 6-2 3-1-6h-6l1 6-3-1-2-4z" fill="#E4B476"/>
<path transform="translate(414,1031)" d="m0 0 2 4-2 11-1 2-6-1-1-3 2-4 2 5 2-2 1-8v-3z" fill="#E4B476"/>
<path transform="translate(678,1559)" d="m0 0 4 1 1 7h-6l-2-6z" fill="#E4B476"/>
<path transform="translate(411,1172)" d="m0 0h3v3l9 1-2 4h-7l-3-6z" fill="#fff"/>
<path transform="translate(987,1095)" d="m0 0 2 2 2 8v7h-3l-1-3z" fill="#E4B476"/>
<path transform="translate(1517,785)" d="m0 0 4 1 1 1v6l-4 1-3-4 1-4z" fill="#fff"/>
<path transform="translate(970,1649)" d="m0 0 6 1-1 5-5 1-3-3 1-3z" fill="#E5B77B"/>
<path transform="translate(979,503)" d="m0 0h5l3 5-2 2h-5l-2-3z" fill="#E4B476"/>
<path transform="translate(512,678)" d="m0 0 4 2v5l-2 2-4-1-1-5z" fill="#E4B476"/>
<path transform="translate(890,869)" d="m0 0h1v7l-2 7h-2v8l-2 1 1-12 3-10z" fill="#8C6F49"/>
<path transform="translate(1585,862)" d="m0 0 3 1 1 3-6 9-1-3v-3l-2-2h3z" fill="#E4B476"/>
<path transform="translate(915,1664)" d="m0 0 4 1-2 8-5-2 1-5z" fill="#E4B476"/>
<path transform="translate(1584,1111)" d="m0 0 5 3 1 4-3 2-5-3 1-5z" fill="#F9EEE0"/>
<path transform="translate(852,474)" d="m0 0h2l2 6-2 4-4-1v-7z" fill="#E4B476"/>
<path transform="translate(704,1647)" d="m0 0 3 2v5l-4 1-4-4 2-3z" fill="#E4B476"/>
<path transform="translate(1442,1494)" d="m0 0 4 4v5l-4 1-2-2 1-7z" fill="#E4B476"/>
<path transform="translate(1445,1325)" d="m0 0h7l4 3-1 5-2-4-5-2h-2l2 6 4 2h-5l-3-6z" fill="#E4B476"/>
<path transform="translate(1358,1085)" d="m0 0m-6 1h6v2h-2l-2 5-4 2v-6z" fill="#EBC89B"/>
<path transform="translate(579,724)" d="m0 0 3 1 1 2v6h-4l-2-3 1-5z" fill="#EAC698"/>
<path transform="translate(1220,515)" d="m0 0 5 2-1 6-5-1-1-5z" fill="#EED0AA"/>
<path transform="translate(1196,1638)" d="m0 0 4 1-1 5-4 2-3-1 2-5z" fill="#E4B476"/>
<path transform="translate(672,1573)" d="m0 0 4 1 3 4-3 3-4-1-1-6z" fill="#fff"/>
<path transform="translate(1037,1182)" d="m0 0 1 2 6 1v2h2l-2 5-4-2-3-5z" fill="#F2DCBF"/>
<path transform="translate(1320,1561)" d="m0 0 5 1v6l-5 1-1-6z" fill="#E4B476"/>
<path transform="translate(1443,1448)" d="m0 0h6v4l-2 2-6-1 1-4z" fill="#E5B77C"/>
<path transform="translate(481,722)" d="m0 0 8 1-3 5h-5l-1-5z" fill="#EBC799"/>
<path transform="translate(686,575)" d="m0 0h2l-1 3-9 6h-3l1-4z" fill="#E4B476"/>
<path transform="translate(1413,673)" d="m0 0 3 1 1 4-2 2h-6l-1-3z" fill="#fff"/>
<path transform="translate(1436,669)" d="m0 0 5 1 1 1v5h-5l-2-2z" fill="#E4B476"/>
<path transform="translate(1339,619)" d="m0 0 5 1v5l-5 1-2-2 1-4z" fill="#FDF9F4"/>
<path transform="translate(1144,526)" d="m0 0 3 1 1 7-3 1-3-2v-5z" fill="#E4B476"/>
<path transform="translate(976,482)" d="m0 0 4 2-1 5-5 1-1-5z" fill="#E4B476"/>
<path transform="translate(1573,1275)" d="m0 0h5l1 4-3 3-4-1-1-3z" fill="#E4B476"/>
<path transform="translate(789,504)" d="m0 0 4 1 1 4-3 3-4-2 1-5z" fill="#ECCA9F"/>
<path transform="translate(923,1661)" d="m0 0 4 1 1 2-3 7h-2l-1-8z" fill="#fff"/>
<path transform="translate(790,1592)" d="m0 0 5 1 1 3-2 3-4-1-2-4z" fill="#F0D6B5"/>
<path transform="translate(1363,1543)" d="m0 0h5l2 2v4l-7-1-1-3z" fill="#EAC799"/>
<path transform="translate(1104,1184)" d="m0 0 2 4-2 3h-11l2-2 7-3z" fill="#F6E6D1"/>
<path transform="translate(1220,991)" d="m0 0 1 3-3 15-2 2 1-14z" fill="#040404"/>
<path transform="translate(728,511)" d="m0 0h6l1 1v7l-3 4-4-2-2-8zm1 1-1 1v5l2 2h3l1-7z" fill="#E4B476"/>
<path transform="translate(1181,1669)" d="m0 0 6 1v4l-6 1-2-4z" fill="#E4B476"/>
<path transform="translate(519,1427)" d="m0 0 3 1 1 7-5-1-1-5z" fill="#E4B476"/>
<path transform="translate(493,896)" d="m0 0h1v6l1 3-3 7-2-2v-6z" fill="#B39874"/>
<path transform="translate(1428,626)" d="m0 0 4 1 1 5-1 5h-1v-8l-6 2-2 4v-6z" fill="#E4B476"/>
<path transform="translate(1281,1605)" d="m0 0 2 2-1 5-7-2 2-4z" fill="#fff"/>
<path transform="translate(1460,1430)" d="m0 0 4 1 1 4-2 2-5-1 1-5z" fill="#E4B476"/>
<path transform="translate(1563,1328)" d="m0 0 3 1 1 7-5-1-1-5z" fill="#E9C493"/>
<path transform="translate(1556,1268)" d="m0 0h4l1 5-2 2-4-1-1-4z" fill="#fff"/>
<path transform="translate(1399,1097)" d="m0 0 4 1 10 5 2 2-1 3-15-10z" fill="#F3DEC3"/>
<path transform="translate(1067,693)" d="m0 0h3l-2 10-4 1 1-7z" fill="#E4B476"/>
<path transform="translate(1367,572)" d="m0 0h7v4l-1 1-7-1z" fill="#F4E0C7"/>
<path transform="translate(1168,543)" d="m0 0h5v6h-5l-2-2v-3z" fill="#fff"/>
<path transform="translate(1e3 496)" d="m0 0 3 1 1 6-4 2-2-2 1-6z" fill="#F1DABC"/>
<path transform="translate(778,1627)" d="m0 0 5 1 1 4-4 3h-2z" fill="#E4B476"/>
<path transform="translate(1505,1373)" d="m0 0h3l-1 5-2 2-4-1v-3z" fill="#fff"/>
<path transform="translate(408,807)" d="m0 0 4 1 1 3-4 3-4-1 1-4z" fill="#EDCDA3"/>
<path transform="translate(1078,456)" d="m0 0 4 1v6l-4 1-1-1v-6z" fill="#E7BC85"/>
<path transform="translate(1011,1626)" d="m0 0 3 2v6h-4l-1-1v-5z" fill="#F2DCC0"/>
<path transform="translate(1421,1478)" d="m0 0 5 1-2 5h-4l-2-4z" fill="#fff"/>
<path transform="translate(1527,674)" d="m0 0 5 1-1 2-4 1 1 6 3 2-5-1-2-3v-5z" fill="#E4B476"/>
<path transform="translate(1480,1417)" d="m0 0 4 1-1 5-4 1-1-1v-5z" fill="#fff"/>
<path transform="translate(1536,1312)" d="m0 0 3 1 1 7-4-1-2-2 1-4z" fill="#E4B476"/>
<path transform="translate(422,1276)" d="m0 0 4 1 1 4-2 2-4-1v-5z" fill="#E4B476"/>
<path transform="translate(1599,1203)" d="m0 0h4l1 7-5-1-1-4z" fill="#fff"/>
<path transform="translate(937,1115)" d="m0 0 7 1 2 3-10 1-2-2z" fill="#EFD2AE"/>
<path transform="translate(1401,635)" d="m0 0 5 1v5l-5 1-1-6z" fill="#FEFCFA"/>
<path transform="translate(1500,1443)" d="m0 0 5 1v6l-4-1-2-5z" fill="#fff"/>
<path transform="translate(1400,1385)" d="m0 0h5l1 4-3 2h-4z" fill="#fff"/>
<path transform="translate(955,1176)" d="m0 0 6 1v2l4 1-1 3-2-2h-4l-3-3z" fill="#F4E1C9"/>
<path transform="translate(990,1115)" d="m0 0 4 2v2h-11l1-3z" fill="#E4B67A"/>
<path transform="translate(809,1110)" d="m0 0 2 2-1 6-1 1h-5v-3l4-4z" fill="#F5E3CD"/>
<path transform="translate(1574,1052)" d="m0 0 3 1v9l-4 1 2-2 1-7-7 2-2 2v-4z" fill="#E4B476"/>
<path transform="translate(1077,692)" d="m0 0 3 1v9l-4-1v-7z" fill="#E4B476"/>
<path transform="translate(640,635)" d="m0 0 5 2v4h-6l-1-3z" fill="#E4B476"/>
<path transform="translate(1027,1678)" d="m0 0 3 1v6l-4-1-2-1v-4z" fill="#fff"/>
<path transform="translate(932,1653)" d="m0 0 3 1 1 5-4 2-2-5z" fill="#E7BD87"/>
<path transform="translate(1264,1596)" d="m0 0 4 1-1 5-3 1-2-1 1-5z" fill="#fff"/>
<path transform="translate(1046,1157)" d="m0 0h11l-2 3h-6l-4 1-2-2z" fill="#E4B476"/>
<path transform="translate(1592,1097)" d="m0 0 5 3-1 3-4 1-2-1 1-5z" fill="#F9F0E5"/>
<path transform="translate(1088,691)" d="m0 0 5 5 2 4-5-1-3-5z" fill="#E4B476"/>
<path transform="translate(875,502)" d="m0 0h4v5l-1 1h-5l1-5z" fill="#ECCBA0"/>
<path transform="translate(827,471)" d="m0 0h5l1 3-1 3-5-1-1-3z" fill="#fff"/>
<path transform="translate(533,1418)" d="m0 0 4 2-1 5h-4z" fill="#E9C290"/>
<path transform="translate(1566,1248)" d="m0 0h4l-1 5-3 2-2-1v-5z" fill="#fff"/>
<path transform="translate(1668,1128)" d="m0 0 7 1-3 5h-3z" fill="#FAF2E8"/>
<path transform="translate(370,976)" d="m0 0 5 1v4l-4 1-2-2z" fill="#F5E4CE"/>
<path transform="translate(1291,567)" d="m0 0h5l1 3-2 3-4-1-1-4z" fill="#fff"/>
<path transform="translate(1270,516)" d="m0 0 4 1 1 3-1 2-5-1v-4z" fill="#E4B67A"/>
<path transform="translate(837,1658)" d="m0 0h5l1 4-1 1h-5l-1-4z" fill="#fff"/>
<path transform="translate(879,1657)" d="m0 0h2l2 10-3-1-2-5z" fill="#E4B476"/>
<path transform="translate(1244,1597)" d="m0 0 5 1-2 5h-4v-5z" fill="#fff"/>
<path transform="translate(1395,1108)" d="m0 0h4v5l-5 4v-7z" fill="#E4B476"/>
<path transform="translate(1598,917)" d="m0 0h6l1 5-6-1z" fill="#F4E1C8"/>
<path transform="translate(1484,703)" d="m0 0 4 1 1 4-3 2-3-2z" fill="#EBC89A"/>
<path transform="translate(1374,602)" d="m0 0 4 1 1 5h-5l-1-5z" fill="#E4B476"/>
<path transform="translate(1104,1619)" d="m0 0 4 2-1 4h-5l1-5z" fill="#E4B476"/>
<path transform="translate(1540,1338)" d="m0 0h2l1 7h-4v-2h-2l2-4z" fill="#fff"/>
<path transform="translate(1576,1247)" d="m0 0 4 1 2 2-3 3-4-1z" fill="#fff"/>
<path transform="translate(423,1073)" d="m0 0 5 2-3 3h-6l2-4z" fill="#E4B476"/>
<path transform="translate(1584,938)" d="m0 0h6l1 4-1 2-5-2z" fill="#EAC697"/>
<path transform="translate(667,550)" d="m0 0 4 1v4l-5 1v-5z" fill="#fff"/>
<path transform="translate(626,1492)" d="m0 0h2l1 7-5-1v-4z" fill="#E4B476"/>
<path transform="translate(807,502)" d="m0 0 2 1v5l-4 1-1-5z" fill="#E4B476"/>
<path transform="translate(833,499)" d="m0 0 4 1-1 4h-5v-4z" fill="#E6BC84"/>
<path transform="translate(923,473)" d="m0 0 4 1v6l-4-1-1-4z" fill="#E4B476"/>
<path transform="translate(965,1675)" d="m0 0h4v5l-4 1-1-5z" fill="#fff"/>
<path transform="translate(579,1499)" d="m0 0h5l-1 4h-6l-1-3z" fill="#fff"/>
<path transform="translate(373,1214)" d="m0 0 2 1-1 7-4-2 2-5z" fill="#fff"/>
<path transform="translate(475,839)" d="m0 0h4l-1 5-4 1-1-3z" fill="#E5B67B"/>
<path transform="translate(1101,688)" d="m0 0h5l1 7-6-4z" fill="#E4B476"/>
<path transform="translate(1342,566)" d="m0 0 4 1v5l-5-1z" fill="#F4E0C7"/>
<path transform="translate(1154,510)" d="m0 0 3 1 1 4-1 2h-3l-2-6z" fill="#fff"/>
<path transform="translate(1534,1396)" d="m0 0 3 1-1 5-5-2 1-3z" fill="#E4B476"/>
<path transform="translate(1100,1159)" d="m0 0h3v9l-3-1z" fill="#F8EDDF"/>
<path transform="translate(886,919)" d="m0 0 3 4h1l1 9h-2l-3-8z" fill="#E8BF8B"/>
<path transform="translate(1303,591)" d="m0 0h5l1 3-2 3-4-2z" fill="#fff"/>
<path transform="translate(1355,583)" d="m0 0 4 1v4l-4 1-2-4z" fill="#E8BF8B"/>
<path transform="translate(1011,471)" d="m0 0h5v5l-4 1z" fill="#fff"/>
</svg>
